<svg width="11" height="11" viewBox="0 0 11 11" fill="none" xmlns="http://www.w3.org/2000/svg">
<g clip-path="url(#clip0)">
<path d="M0.565638 11C0.42074 11 0.275843 10.9449 0.165755 10.834C-0.0552515 10.613 -0.0552515 10.2547 0.165755 10.0337L10.0337 0.165755C10.2547 -0.0552515 10.613 -0.0552515 10.834 0.165755C11.055 0.386761 11.055 0.745067 10.834 0.966211L0.966211 10.834C0.855294 10.9442 0.710397 11 0.565638 11Z" fill="#8F8F8F"/>
<path d="M10.4343 11C10.2894 11 10.1446 10.9449 10.0344 10.834L0.165755 0.966211C-0.0552515 0.745067 -0.0552515 0.386761 0.165755 0.165755C0.386761 -0.0552515 0.745067 -0.0552515 0.966211 0.165755L10.834 10.0337C11.055 10.2547 11.055 10.613 10.834 10.834C10.7231 10.9442 10.5783 11 10.4343 11Z" fill="#8F8F8F"/>
</g>
<defs>
<clipPath id="clip0">
<rect width="11" height="11" fill="white"/>
</clipPath>
</defs>
</svg>
