<svg width="20" height="20" viewBox="0 0 20 20" fill="none" xmlns="http://www.w3.org/2000/svg">
<g clip-path="url(#clip0)">
<path d="M1.03429 20C0.770842 20 0.507393 19.8998 0.307231 19.6982C-0.094598 19.2963 -0.094598 18.6449 0.307231 18.2431L18.2489 0.301372C18.6507 -0.100457 19.3022 -0.100457 19.704 0.301372C20.1059 0.703201 20.1059 1.35467 19.704 1.75675L1.76261 19.6982C1.56094 19.8986 1.29749 20 1.03429 20Z" fill="#8F8F8F"/>
<path d="M18.9772 20C18.7138 20 18.4506 19.8998 18.2502 19.6982L0.307231 1.75675C-0.094598 1.35467 -0.094598 0.703201 0.307231 0.301372C0.709061 -0.100457 1.36053 -0.100457 1.76261 0.301372L19.704 18.2431C20.1059 18.6449 20.1059 19.2963 19.704 19.6982C19.5024 19.8986 19.2392 20 18.9772 20Z" fill="#8F8F8F"/>
</g>
<defs>
<clipPath id="clip0">
<rect width="20" height="20" fill="white"/>
</clipPath>
</defs>
</svg>
