<svg width="419" height="798" viewBox="0 0 419 798" fill="none" xmlns="http://www.w3.org/2000/svg">
<path fill-rule="evenodd" clip-rule="evenodd" d="M251.073 271.7C208.119 203.847 127.409 160.073 44.4687 160.073C-83.1609 160.073 -186.625 267.167 -186.625 399.275C-186.625 531.382 -83.1609 638.477 44.4687 638.477C125.963 638.477 207.579 598.799 251.073 532.683H419C395.461 611.449 349.038 673.195 279.731 723.359C210.423 773.083 134.141 797.944 50.8845 797.944C1.62811 797.944 -47.8462 788.044 -97.5385 768.242C-146.795 748.001 -189.295 720.499 -225.038 685.736C-264.705 647.013 -294.782 602.79 -315.269 553.066C-335.756 503.342 -346 450.319 -346 393.994C-346 285.306 -307.423 192.679 -230.269 116.114C-152.68 39.1078 -59.3975 0.60498 49.5768 0.60498C131.526 0.60498 208.026 25.9069 279.077 76.5106C350.128 127.114 396.769 191.174 419 271.7H251.073Z" fill="white"/>
<path d="M250.611 318.426H419V485.7H250.611L250.611 318.426Z" fill="#00AFAB"/>
</svg>
