<svg width="19" height="19" viewBox="0 0 19 19" fill="none" xmlns="http://www.w3.org/2000/svg">
<g clip-path="url(#clip0)">
<path d="M9.46846 17.3904H2.3671C1.93154 17.3904 1.57808 17.0369 1.57808 16.6014V2.39867C1.57808 1.96312 1.93158 1.60965 2.3671 1.60965H9.46846C9.90479 1.60965 10.2575 1.25697 10.2575 0.820634C10.2575 0.384302 9.90479 0.0315399 9.46846 0.0315399H2.3671C1.06203 0.0315399 0 1.09361 0 2.39867V16.6013C0 17.9064 1.06203 18.9684 2.3671 18.9684H9.46846C9.90479 18.9684 10.2575 18.6157 10.2575 18.1794C10.2575 17.7431 9.90479 17.3904 9.46846 17.3904Z" fill="#8F8F8F"/>
<path d="M18.7651 8.93821L13.9677 4.20398C13.6584 3.89783 13.1582 3.9018 12.852 4.21188C12.5459 4.52197 12.549 5.02143 12.8599 5.32758L16.2883 8.71095H7.10152C6.66519 8.71095 6.3125 9.06364 6.3125 9.49997C6.3125 9.9363 6.66519 10.289 7.10152 10.289H16.2883L12.8599 13.6724C12.5491 13.9786 12.5467 14.478 12.852 14.7881C13.0067 14.9443 13.2102 15.0232 13.4138 15.0232C13.6142 15.0232 13.8146 14.9475 13.9677 14.796L18.7651 10.0617C18.915 9.91341 19.0002 9.71138 19.0002 9.49993C19.0002 9.28856 18.9158 9.08735 18.7651 8.93821Z" fill="#8F8F8F"/>
</g>
<defs>
<clipPath id="clip0">
<rect width="19" height="19" fill="white"/>
</clipPath>
</defs>
</svg>
