<svg width="22" height="22" viewBox="0 0 22 22" fill="none" xmlns="http://www.w3.org/2000/svg">
<path d="M9.16602 11.9167C9.55968 12.4429 10.0619 12.8784 10.6387 13.1935C11.2154 13.5086 11.8532 13.696 12.5088 13.743C13.1643 13.7899 13.8223 13.6953 14.4381 13.4656C15.0539 13.2359 15.613 12.8765 16.0777 12.4117L18.8277 9.66166C19.6626 8.79723 20.1245 7.63947 20.1141 6.43773C20.1037 5.236 19.6216 4.08644 18.7719 3.23665C17.9221 2.38687 16.7725 1.90484 15.5708 1.8944C14.369 1.88396 13.2113 2.34593 12.3468 3.18082L10.7702 4.74832" stroke="#111111" stroke-width="2" stroke-linecap="round" stroke-linejoin="round"/>
<path d="M12.833 10.0833C12.4394 9.55703 11.9371 9.12156 11.3604 8.80645C10.7836 8.49134 10.1458 8.30396 9.49026 8.25701C8.83472 8.21006 8.17674 8.30465 7.56096 8.53435C6.94518 8.76405 6.38601 9.1235 5.92136 9.58832L3.17136 12.3383C2.33647 13.2027 1.8745 14.3605 1.88494 15.5622C1.89538 16.764 2.37741 17.9135 3.22719 18.7633C4.07698 19.6131 5.22654 20.0951 6.42827 20.1056C7.63001 20.116 8.78777 19.654 9.65219 18.8191L11.2197 17.2516" stroke="#111111" stroke-width="2" stroke-linecap="round" stroke-linejoin="round"/>
</svg>
