<svg width="22" height="22" viewBox="0 0 22 22" fill="none" xmlns="http://www.w3.org/2000/svg">
<circle cx="11" cy="11" r="11" fill="black"/>
<path d="M14.6147 9.58594H17.4433V12.4145H14.6147V9.58594Z" fill="#00AFAB"/>
<path fill-rule="evenodd" clip-rule="evenodd" d="M14.6148 8.80637C13.8912 7.6641 12.5318 6.9272 11.1347 6.9272C8.9849 6.9272 7.24214 8.73005 7.24214 10.954C7.24214 13.1779 8.9849 14.9808 11.1347 14.9808C12.5074 14.9808 13.8821 14.3128 14.6148 13.1998H17.4433C17.0468 14.5258 16.2649 15.5652 15.0975 16.4097C13.93 17.2468 12.6451 17.6653 11.2428 17.6653C10.4131 17.6653 9.57974 17.4986 8.74272 17.1653C7.91304 16.8245 7.19717 16.3616 6.5951 15.7764C5.92695 15.1245 5.42034 14.38 5.07525 13.543C4.73016 12.7059 4.55762 11.8133 4.55762 10.8651C4.55762 9.03541 5.20741 7.4761 6.50699 6.18718C7.81392 4.89084 9.38517 4.24268 11.2207 4.24268C12.6011 4.24268 13.8897 4.66861 15.0865 5.52049C16.2833 6.37237 17.0689 7.45077 17.4433 8.80637H14.6148Z" fill="white"/>
</svg>
