<svg width="24" height="21" viewBox="0 0 24 21" fill="none" xmlns="http://www.w3.org/2000/svg">
<g clip-path="url(#clip0)">
<path d="M23.4837 8.6506H14.8501C14.5346 7.12232 13.0431 6.13176 11.4942 6.44308C10.3756 6.66949 9.48639 7.51854 9.25693 8.6506H0.652036C0.365206 8.6506 0.164425 8.87701 0.135742 9.16003V20.3391C0.135742 20.6222 0.365206 20.8486 0.652036 20.8486H23.4837C23.7705 20.8486 24 20.6222 24 20.3391V9.16003C23.9713 8.87701 23.7705 8.6506 23.4837 8.6506V8.6506ZM12.0679 7.40533C13.1004 7.40533 13.9036 8.22608 13.9036 9.21663C13.9036 10.2355 13.0718 11.0279 12.0679 11.0279C11.0353 11.0279 10.2322 10.2072 10.2322 9.21663C10.2322 8.11287 11.1787 7.40533 12.0679 7.40533ZM22.9961 19.8297H1.16833V9.64115H9.25693C9.48639 11.1694 10.9492 12.2166 12.4981 11.9902C13.7315 11.7921 14.678 10.8581 14.8788 9.64115H22.9674L22.9961 19.8297Z" fill="#00AFAB"/>
<path d="M4.43775 13.4618H3.49121V17.99H6.76107V17.2259H4.43775V13.4618Z" fill="#00AFAB"/>
<path d="M8.59668 13.4336H9.54322V17.9901H8.59668V13.4336Z" fill="#00AFAB"/>
<path d="M13.3293 16.8015L12.1533 13.4336H11.1494L12.7843 17.9901H13.7882L15.4519 13.4336H14.448L13.3293 16.8015Z" fill="#00AFAB"/>
<path d="M20.6442 17.226H18.0628V15.9807H20.3861V15.2166H18.0628V14.1977H20.5582V13.4336H17.1162V17.9901H20.6442V17.226Z" fill="#00AFAB"/>
<path d="M7.76582 4.97138C7.56504 5.16949 7.56504 5.48081 7.76582 5.67892C7.9666 5.87703 8.28211 5.87703 8.48289 5.67892C10.462 3.72611 13.6745 3.72611 15.6536 5.67892C15.8544 5.87703 16.1699 5.87703 16.3707 5.67892C16.5715 5.48081 16.5715 5.16949 16.3707 4.97138C13.99 2.65065 10.1465 2.65065 7.76582 4.97138Z" fill="#00AFAB"/>
<path d="M6.24559 3.47139C9.45808 0.273316 14.6784 0.273316 17.8909 3.47139C18.0917 3.6695 18.4072 3.6695 18.608 3.47139C18.8087 3.27328 18.8087 2.96196 18.608 2.76385C14.9939 -0.802144 9.14257 -0.802144 5.52852 2.76385C5.32773 2.96196 5.32773 3.27328 5.52852 3.47139C5.78666 3.72611 6.10217 3.5846 6.24559 3.47139V3.47139Z" fill="#00AFAB"/>
</g>
<defs>
<clipPath id="clip0">
<rect width="24" height="21" fill="white"/>
</clipPath>
</defs>
</svg>
