<svg width="17" height="17" viewBox="0 0 17 17" fill="none" xmlns="http://www.w3.org/2000/svg">
<path d="M12.0413 14.875V13.4583C12.0413 12.7069 11.7428 11.9862 11.2115 11.4549C10.6801 10.9235 9.95945 10.625 9.20801 10.625H3.54134C2.78989 10.625 2.06922 10.9235 1.53787 11.4549C1.00652 11.9862 0.708008 12.7069 0.708008 13.4583V14.875" stroke="#828282" stroke-linecap="round" stroke-linejoin="round"/>
<path d="M6.37533 7.79167C7.94013 7.79167 9.20866 6.52314 9.20866 4.95833C9.20866 3.39353 7.94013 2.125 6.37533 2.125C4.81052 2.125 3.54199 3.39353 3.54199 4.95833C3.54199 6.52314 4.81052 7.79167 6.37533 7.79167Z" stroke="#828282" stroke-linecap="round" stroke-linejoin="round"/>
<path d="M16.292 14.875V13.4583C16.2915 12.8305 16.0826 12.2207 15.698 11.7245C15.3133 11.2284 14.7748 10.874 14.167 10.7171" stroke="#828282" stroke-linecap="round" stroke-linejoin="round"/>
<path d="M11.333 2.21707C11.9425 2.37312 12.4827 2.72757 12.8684 3.22454C13.2542 3.72151 13.4636 4.33274 13.4636 4.96186C13.4636 5.59098 13.2542 6.20221 12.8684 6.69918C12.4827 7.19616 11.9425 7.55061 11.333 7.70665" stroke="#828282" stroke-linecap="round" stroke-linejoin="round"/>
</svg>
