<svg width="21" height="21" viewBox="0 0 21 21" fill="none" xmlns="http://www.w3.org/2000/svg">
<path d="M16.625 9.625H4.375C3.4085 9.625 2.625 10.4085 2.625 11.375V17.5C2.625 18.4665 3.4085 19.25 4.375 19.25H16.625C17.5915 19.25 18.375 18.4665 18.375 17.5V11.375C18.375 10.4085 17.5915 9.625 16.625 9.625Z" stroke="#111111" stroke-linecap="round" stroke-linejoin="round"/>
<path d="M6.125 9.625V6.125C6.125 4.96468 6.58594 3.85188 7.40641 3.03141C8.22688 2.21094 9.33968 1.75 10.5 1.75C11.6603 1.75 12.7731 2.21094 13.5936 3.03141C14.4141 3.85188 14.875 4.96468 14.875 6.125V9.625" stroke="#111111" stroke-linecap="round" stroke-linejoin="round"/>
</svg>
