<svg width="28" height="28" viewBox="0 0 28 28" fill="none" xmlns="http://www.w3.org/2000/svg">
<rect width="28" height="28" rx="14" fill="white"/>
<g clip-path="url(#clip0)">
<path d="M8.80343 15.9472L8.15367 18.3728L5.77881 18.4231C5.06908 17.1067 4.6665 15.6005 4.6665 14C4.6665 12.4523 5.0429 10.9928 5.71009 9.70769H5.7106L7.82489 10.0953L8.75108 12.1969C8.55723 12.7621 8.45157 13.3687 8.45157 14C8.45164 14.6851 8.57575 15.3416 8.80343 15.9472Z" fill="#FBBB00"/>
<path d="M23.1701 12.2564C23.2773 12.821 23.3332 13.4041 23.3332 14C23.3332 14.6682 23.263 15.32 23.1291 15.9487C22.6748 18.0882 21.4876 19.9564 19.843 21.2785L19.8425 21.278L17.1794 21.1421L16.8025 18.7892C17.8938 18.1493 18.7466 17.1477 19.1959 15.9487H14.2051V12.2564H19.2687H23.1701Z" fill="#518EF8"/>
<path d="M19.8424 21.278L19.8429 21.2785C18.2434 22.5641 16.2116 23.3333 13.9998 23.3333C10.4455 23.3333 7.35523 21.3467 5.77881 18.4231L8.80343 15.9472C9.59162 18.0508 11.6209 19.5482 13.9998 19.5482C15.0224 19.5482 15.9804 19.2718 16.8024 18.7892L19.8424 21.278Z" fill="#28B446"/>
<path d="M19.9571 6.81538L16.9335 9.29076C16.0828 8.75897 15.0771 8.45178 13.9997 8.45178C11.5669 8.45178 9.4997 10.0179 8.75099 12.1969L5.71047 9.70769H5.70996C7.2633 6.71282 10.3925 4.66667 13.9997 4.66667C16.2643 4.66667 18.3407 5.47335 19.9571 6.81538Z" fill="#F14336"/>
</g>
<defs>
<clipPath id="clip0">
<rect x="4.6665" y="4.66667" width="18.6667" height="18.6667" rx="9.33333" fill="white"/>
</clipPath>
</defs>
</svg>
