<svg width="21" height="21" viewBox="0 0 21 21" fill="none" xmlns="http://www.w3.org/2000/svg">
<path d="M18.9 0H2.1C0.945 0 0 0.945 0 2.1V18.9C0 20.055 0.945 21 2.1 21H18.9C20.055 21 21 20.055 21 18.9V2.1C21 0.945 20.055 0 18.9 0ZM6.3 17.85H3.15V8.4H6.3V17.85ZM4.725 6.615C3.675 6.615 2.835 5.775 2.835 4.725C2.835 3.675 3.675 2.835 4.725 2.835C5.775 2.835 6.615 3.675 6.615 4.725C6.615 5.775 5.775 6.615 4.725 6.615ZM17.85 17.85H14.7V12.285C14.7 11.445 13.965 10.71 13.125 10.71C12.285 10.71 11.55 11.445 11.55 12.285V17.85H8.4V8.4H11.55V9.66C12.075 8.82 13.23 8.19 14.175 8.19C16.17 8.19 17.85 9.87 17.85 11.865V17.85Z" fill="black"/>
</svg>
