<svg width="30" height="30" viewBox="0 0 30 30" fill="none" xmlns="http://www.w3.org/2000/svg">
<g clip-path="url(#clip0)">
<path d="M16.875 5.225C16.53 5.225 16.25 4.945 16.25 4.6V2.5C16.25 1.81125 15.6888 1.25 15 1.25C14.3113 1.25 13.75 1.81125 13.75 2.5V4.6C13.75 4.945 13.47 5.225 13.125 5.225C12.78 5.225 12.5 4.94625 12.5 4.6V2.5C12.5 1.12125 13.6213 0 15 0C16.3788 0 17.5 1.12125 17.5 2.5V4.6C17.5 4.94625 17.22 5.225 16.875 5.225Z" fill="white"/>
<path d="M15 30C12.5875 30 10.625 28.0375 10.625 25.625C10.625 25.28 10.905 25 11.25 25C11.595 25 11.875 25.28 11.875 25.625C11.875 27.3475 13.2775 28.75 15 28.75C16.7225 28.75 18.125 27.3475 18.125 25.625C18.125 25.28 18.405 25 18.75 25C19.095 25 19.375 25.28 19.375 25.625C19.375 28.0375 17.4125 30 15 30Z" fill="white"/>
<path d="M25.625 26.25H4.375C3.34125 26.25 2.5 25.4088 2.5 24.375C2.5 23.8263 2.73875 23.3075 3.15625 22.95C5.12625 21.285 6.25 18.8625 6.25 16.2975V12.5C6.25 7.675 10.175 3.75 15 3.75C19.825 3.75 23.75 7.675 23.75 12.5V16.2975C23.75 18.8638 24.8737 21.285 26.8337 22.9412C27.2612 23.3075 27.5 23.8263 27.5 24.375C27.5 25.4088 26.66 26.25 25.625 26.25ZM15 5C10.8637 5 7.5 8.36375 7.5 12.5V16.2975C7.5 19.2325 6.215 22.0013 3.97375 23.8963C3.83 24.0188 3.75 24.1925 3.75 24.375C3.75 24.72 4.03 25 4.375 25H25.625C25.97 25 26.25 24.72 26.25 24.375C26.25 24.1925 26.17 24.0188 26.0312 23.9C23.7862 22.0013 22.5 19.2312 22.5 16.2975V12.5C22.5 8.36375 19.1362 5 15 5Z" fill="white"/>
</g>
<defs>
<clipPath id="clip0">
<rect width="30" height="30" fill="white"/>
</clipPath>
</defs>
</svg>
