<svg width="21" height="17" viewBox="0 0 21 17" fill="none" xmlns="http://www.w3.org/2000/svg">
<path d="M0.438498 1.90288C3.32066 4.34376 8.37797 8.63802 9.86438 9.97697C10.0639 10.1577 10.2779 10.2496 10.5001 10.2496C10.7219 10.2496 10.9355 10.1585 11.1346 9.9787C12.6223 8.63843 17.6796 4.34376 20.5618 1.90288C20.7412 1.75121 20.7686 1.48461 20.6233 1.29917C20.2875 0.870683 19.7868 0.625 19.2501 0.625H1.75014C1.21353 0.625 0.712769 0.870684 0.376974 1.29922C0.231697 1.48461 0.259054 1.75121 0.438498 1.90288Z" fill="black"/>
<path d="M20.7462 3.22585C20.5912 3.15366 20.4087 3.17884 20.2797 3.28909C17.0834 5.99867 13.0041 9.47179 11.7206 10.6283C11.0003 11.2786 10.0005 11.2786 9.27847 10.6274C7.91044 9.39484 3.32948 5.50049 0.720316 3.28905C0.59042 3.1788 0.407572 3.15448 0.253764 3.22581C0.0991348 3.29762 0 3.45229 0 3.62275V14.6252C0 15.5904 0.784834 16.3752 1.75001 16.3752H19.25C20.2152 16.3752 21 15.5904 21 14.6252V3.62275C21 3.45229 20.9009 3.29721 20.7462 3.22585Z" fill="black"/>
</svg>
