<svg width="38" height="38" viewBox="0 0 38 38" fill="none" xmlns="http://www.w3.org/2000/svg">
<circle cx="19" cy="19" r="18.5" stroke="white"/>
<g clip-path="url(#clip0)">
<path d="M22.899 21.4819C21.9312 21.4819 21.0713 21.9522 20.5354 22.6761L15.9221 20.3185C15.9995 20.0556 16.0412 19.7775 16.0412 19.4898C16.0412 19.1002 15.9648 18.7282 15.8265 18.3876L20.6616 15.4825C21.2011 16.1158 22.0039 16.5181 22.899 16.5181C24.5196 16.5181 25.8381 15.1996 25.8381 13.579C25.8381 11.9584 24.5196 10.64 22.899 10.64C21.2784 10.64 19.96 11.9584 19.96 13.579C19.96 13.9536 20.0305 14.312 20.1588 14.6417L15.3117 17.554C14.7726 16.9394 13.9819 16.5508 13.1021 16.5508C11.4815 16.5508 10.1631 17.8692 10.1631 19.4898C10.1631 21.1104 11.4815 22.4289 13.1021 22.4289C14.0858 22.4289 14.9581 21.9431 15.4918 21.1989L20.0918 23.5496C20.0061 23.825 19.96 24.1177 19.96 24.4209C19.96 26.0415 21.2784 27.36 22.899 27.36C24.5196 27.36 25.8381 26.0415 25.8381 24.4209C25.8381 22.8003 24.5196 21.4819 22.899 21.4819ZM22.899 11.6197C23.9794 11.6197 24.8584 12.4986 24.8584 13.579C24.8584 14.6594 23.9794 15.5384 22.899 15.5384C21.8186 15.5384 20.9396 14.6594 20.9396 13.579C20.9396 12.4986 21.8186 11.6197 22.899 11.6197ZM13.1021 21.4492C12.0217 21.4492 11.1428 20.5702 11.1428 19.4898C11.1428 18.4094 12.0217 17.5305 13.1021 17.5305C14.1825 17.5305 15.0615 18.4094 15.0615 19.4898C15.0615 20.5702 14.1825 21.4492 13.1021 21.4492ZM22.899 26.3803C21.8186 26.3803 20.9396 25.5013 20.9396 24.4209C20.9396 23.3405 21.8186 22.4615 22.899 22.4615C23.9794 22.4615 24.8584 23.3405 24.8584 24.4209C24.8584 25.5013 23.9794 26.3803 22.899 26.3803Z" fill="white"/>
</g>
<defs>
<clipPath id="clip0">
<rect width="16.72" height="16.72" fill="white" transform="translate(9.64062 10.64)"/>
</clipPath>
</defs>
</svg>
