<svg width="28" height="28" viewBox="0 0 28 28" fill="none" xmlns="http://www.w3.org/2000/svg">
<path d="M27.7211 8.40007C27.7211 8.40007 27.4477 6.4696 26.6055 5.62194C25.5391 4.50632 24.3469 4.50085 23.8 4.43522C19.8844 4.15085 14.0055 4.15085 14.0055 4.15085H13.9945C13.9945 4.15085 8.11562 4.15085 4.2 4.43522C3.65313 4.50085 2.46094 4.50632 1.39453 5.62194C0.552344 6.4696 0.284375 8.40007 0.284375 8.40007C0.284375 8.40007 0 10.6696 0 12.9337V15.0555C0 17.3196 0.278906 19.5891 0.278906 19.5891C0.278906 19.5891 0.552344 21.5196 1.38906 22.3673C2.45547 23.4829 3.85547 23.4446 4.47891 23.5649C6.72109 23.7782 14 23.8438 14 23.8438C14 23.8438 19.8844 23.8329 23.8 23.554C24.3469 23.4883 25.5391 23.4829 26.6055 22.3673C27.4477 21.5196 27.7211 19.5891 27.7211 19.5891C27.7211 19.5891 28 17.3251 28 15.0555V12.9337C28 10.6696 27.7211 8.40007 27.7211 8.40007ZM11.107 17.6313V9.76179L18.6703 13.7102L11.107 17.6313Z" fill="white"/>
</svg>
