<svg width="30" height="31" viewBox="0 0 30 31" fill="none" xmlns="http://www.w3.org/2000/svg">
<path d="M23.2275 12.3394H29.7602V18.872H23.2275V12.3394Z" fill="#00AFAB"/>
<path fill-rule="evenodd" clip-rule="evenodd" d="M23.2273 10.54C21.5563 7.90189 18.4165 6.2 15.19 6.2C10.225 6.2 6.2 10.3638 6.2 15.5C6.2 20.6362 10.225 24.8 15.19 24.8C18.3603 24.8 21.5353 23.2573 23.2273 20.6868H29.76C28.8443 23.7492 27.0384 26.1498 24.3422 28.1002C21.646 30.0334 18.6784 31 15.4396 31C13.5234 31 11.5988 30.6151 9.66564 29.8452C7.74947 29.0582 6.09614 27.989 4.70564 26.6374C3.16253 25.1319 1.99248 23.4125 1.19549 21.4793C0.398496 19.5461 0 17.4845 0 15.2947C0 11.069 1.50072 7.46772 4.50215 4.49089C7.52055 1.49696 11.1494 0 15.3887 0C18.5767 0 21.5527 0.98372 24.3167 2.95116C27.0808 4.9186 28.8952 7.4092 29.76 10.54H23.2273Z" fill="black"/>
</svg>
