<svg width="23" height="23" viewBox="0 0 23 23" fill="none" xmlns="http://www.w3.org/2000/svg">
<path d="M11.5001 0C6.9071 0 3.17041 3.73669 3.17041 8.32968C3.17041 14.0297 10.6247 22.3977 10.9421 22.7512C11.2402 23.0832 11.7606 23.0826 12.0582 22.7512C12.3756 22.3977 19.8299 14.0297 19.8299 8.32968C19.8298 3.73669 16.0931 0 11.5001 0ZM11.5001 12.5206C9.18927 12.5206 7.30929 10.6406 7.30929 8.32968C7.30929 6.01881 9.18931 4.13883 11.5001 4.13883C13.811 4.13883 15.6909 6.01886 15.6909 8.32973C15.6909 10.6406 13.811 12.5206 11.5001 12.5206Z" fill="black"/>
</svg>
