<svg width="129" height="52" viewBox="0 0 129 52" fill="none" xmlns="http://www.w3.org/2000/svg">
<path d="M64.5474 20.5H75.5474V31.5H64.5474V20.5Z" fill="#00AFAB"/>
<path fill-rule="evenodd" clip-rule="evenodd" d="M37.963 18C35.2678 13.745 30.7041 11 25.5 11C17.4919 11 11 17.7157 11 26C11 34.2843 17.4919 41 25.5 41C30.6134 41 35.3125 38.146 38.0415 34H49C47.5231 38.9393 44.6103 43.1772 40.2615 46.3228C35.9128 49.441 31.1265 51 25.9026 51C22.812 51 19.7077 50.3791 16.5897 49.1374C13.4991 47.8681 10.8325 46.1435 8.58974 43.9636C6.10085 41.5353 4.21368 38.7621 2.92821 35.644C1.64274 32.5259 1 29.2009 1 25.6689C1 18.8532 3.42051 13.0447 8.26154 8.24338C13.1299 3.41446 18.9829 1 25.8205 1C30.9624 1 35.7624 2.58664 40.2205 5.75993C44.6786 8.93322 47.6051 12.9503 49 18H37.963Z" fill="black"/>
<path d="M84.4211 0.999989V51H100.046C115.946 51 127.621 40.225 127.621 25.6C127.621 10.825 116.596 0.999989 100.696 0.999989H84.4211ZM100.621 10.15C110.596 10.15 117.271 15.85 117.271 25.6C117.271 35.125 110.596 41.35 100.621 41.35H94.5461V10.15H100.621Z" fill="black"/>
<path d="M84.4211 1.06023L54.4211 1.06021V51.0002H64.4712L64.5461 31.7352V22.5852V10.2102L84.4211 10.2102V1.06023Z" fill="black"/>
</svg>
