<svg width="100" height="40" viewBox="0 0 100 40" fill="none" xmlns="http://www.w3.org/2000/svg">
<path d="M50.1875 16.9024H58.8749V25.8772H50.1875V16.9024Z" fill="#00AFAB"/>
<path fill-rule="evenodd" clip-rule="evenodd" d="M29.1919 13.426C27.0633 10.0655 23.4591 7.89767 19.3491 7.89767C13.0246 7.89767 7.89752 13.2015 7.89752 19.7441C7.89752 26.2867 13.0246 31.5906 19.3491 31.5906C23.3875 31.5906 27.0986 29.3365 29.2539 26.0622H37.9086C36.7422 29.963 34.4418 33.3099 31.0073 35.7943C27.5729 38.2569 23.7928 39.4881 19.6671 39.4881C17.2263 39.4881 14.7746 38.9978 12.3122 38.0171C9.87136 37.0147 7.76533 35.6526 5.9941 33.931C4.02847 32.0133 2.53804 29.8231 1.52283 27.3606C0.507608 24.898 0 22.272 0 19.4826C0 14.0998 1.91163 9.51246 5.73489 5.72055C9.57976 1.90685 14.2022 0 19.6023 0C23.6632 0 27.4541 1.25307 30.9749 3.75922C34.4958 6.26536 36.807 9.43793 37.9086 13.426H29.1919Z" fill="#F9F9F9"/>
<path d="M65.8823 -8.98946e-06V39.4881H78.2224C90.7796 39.4881 100 30.9784 100 19.4282C100 7.75941 91.2929 -8.98946e-06 78.7357 -8.98946e-06H65.8823ZM78.6765 7.22632C86.5544 7.22632 91.826 11.728 91.826 19.4282C91.826 26.9506 86.5544 31.8669 78.6765 31.8669H73.8787V7.22632H78.6765Z" fill="#F9F9F9"/>
<path d="M65.8833 0.0475279L42.1904 0.0475159V39.4883H50.1276L50.1868 24.2735V17.0472V7.27384L65.8833 7.27382V0.0475279Z" fill="#F9F9F9"/>
</svg>
