<svg width="19" height="19" viewBox="0 0 19 19" fill="none" xmlns="http://www.w3.org/2000/svg">
<path d="M16.7283 4.54358H14.7457L13.6511 2.8914C13.238 2.27184 12.5152 1.9001 11.7717 1.9001H7.22826C6.48478 1.9001 5.76196 2.27184 5.34891 2.8914L4.25435 4.54358H2.27174C1.01196 4.54358 0 5.55554 0 6.81532V14.8284C0 16.0881 1.01196 17.1001 2.27174 17.1001H16.7283C17.988 17.1001 19 16.0881 19 14.8284V6.81532C19 5.55554 17.988 4.54358 16.7283 4.54358ZM9.5 15.2414C6.67065 15.2414 4.37826 12.949 4.37826 10.1197C4.37826 7.29032 6.67065 5.01858 9.5 5.01858C12.3293 5.01858 14.6217 7.31097 14.6217 10.1403C14.6217 12.949 12.3293 15.2414 9.5 15.2414ZM16.4391 7.74467C16.4185 7.74467 16.3978 7.74467 16.3565 7.74467H15.5304C15.1587 7.72401 14.8696 7.41423 14.8902 7.04249C14.9109 6.6914 15.1793 6.42293 15.5304 6.40227H16.3565C16.7283 6.38162 17.038 6.67075 17.0587 7.04249C17.0793 7.41423 16.8109 7.72401 16.4391 7.74467Z" fill="#171717"/>
<path d="M9.50039 7.29041C7.93083 7.29041 6.65039 8.57084 6.65039 10.1404C6.65039 11.71 7.93083 12.9698 9.50039 12.9698C11.07 12.9698 12.3504 11.6893 12.3504 10.1198C12.3504 8.55019 11.07 7.29041 9.50039 7.29041Z" fill="#171717"/>
</svg>
